<?xml version="1.0" encoding="utf-8"?>
<svg id="7A4F446151E20FF20B36B65F24DC285C" style="top: 0px; left: 0px; width: 1024px; height: 768px; position: absolute; transform: translateZ(0px);" width="1024" height="768" viewBox="0 0 1024 768" xmlns="http://www.w3.org/2000/svg">
  <desc>SVG generated by Keynote</desc>
  <g transform="matrix(1.00, 0.00, -0.00, -1.00, 0.0, 768.0)">
    <path d="M 63 672.7 L 75 672.7 L 75 699.7 L 63 699.7 Z M 63 672.7" fill="#000000" fill-opacity="0.00"/>
    <g>
      <g clip-path="url(#clip-0-layer2)">
        <path d="M 63 564.7 L 75 564.7 L 75 591.7 L 63 591.7 Z M 63 564.7" fill="#000000" fill-opacity="0.00"/>
      </g>
    </g>
    <text font-size="20.0" fill="#586E75" transform="matrix(1, 0, 0, -1, 0, 0)" style="white-space: pre;" x="63" y="-733">:</text>
    <text font-size="20.0" fill="#001480" transform="matrix(1, 0, 0, -1, 0, 0)" letter-spacing="0.002000px" style="white-space: pre;" x="75" y="-733">root </text>
    <text font-size="20.0" fill="#586E75" transform="matrix(1, 0, 0, -1, 0, 0)" style="white-space: pre;" x="135" y="-733">{</text>
    <text font-size="20.0" fill="#0432FE" transform="matrix(1.00, 0.00, -0.00, -1.00, 97.0, 733.0)" style="white-space: pre;"> </text>
    <text font-size="20.0" fill="#0432FE" transform="matrix(1, 0, 0, -1, 0, 0)" letter-spacing="0.002000px" style="white-space: pre;" x="63" y="-706">    --main-font-size</text>
    <text font-size="20.0" fill="#586E75" transform="matrix(1, 0, 0, -1, 0, 0)" letter-spacing="0.002000px" style="white-space: pre;" x="223" y="-706">: </text>
    <text font-size="20.0" fill="#0432FE" transform="matrix(1, 0, 0, -1, 0, 0)" letter-spacing="0.002000px" style="white-space: pre;" x="233" y="-706">16</text>
    <text font-size="20.0" fill="#007F01" transform="matrix(1, 0, 0, -1, 0, 0)" letter-spacing="0.002000px" style="white-space: pre;" x="257" y="-706">px</text>
    <text font-size="20.0" fill="#586E75" transform="matrix(1, 0, 0, -1, 0, 0)" letter-spacing="0.002000px" style="white-space: pre;" x="281.1" y="-706">;</text>
    <text font-size="20.0" fill="#586E75" transform="matrix(1.00, 0.00, -0.00, -1.00, 337.1, 706.0)" letter-spacing="0.002000px" style="white-space: pre;"> </text>
    <text font-size="20.0" fill="#586E75" transform="matrix(1, 0, 0, -1, 0, 0)" letter-spacing="0.002000px" style="white-space: pre;" x="63" y="-679">}</text>
    <text font-size="20.0" fill="#586E75" transform="matrix(1.00, 0.00, -0.00, -1.00, 25.0, 679.0)" letter-spacing="0.002000px" style="white-space: pre;"> </text>
    <text font-size="20.0" fill="#001480" transform="matrix(1.00, 0.00, -0.00, -1.00, 13.0, 652.0)" style="white-space: pre;"> </text>
    <text font-size="20.0" fill="#586E75" transform="matrix(1, 0, 0, -1, 0, 0)" style="white-space: pre;" x="63" y="-625">.</text>
    <text font-size="20.0" fill="#001480" transform="matrix(1, 0, 0, -1, 0, 0)" letter-spacing="0.002000px" style="white-space: pre;" x="75" y="-625">emacs </text>
    <text font-size="20.0" fill="#586E75" transform="matrix(1, 0, 0, -1, 0, 0)" style="white-space: pre;" x="147" y="-625">{</text>
    <text font-size="20.0" fill="#0432FE" transform="matrix(1.00, 0.00, -0.00, -1.00, 109.0, 625.0)" style="white-space: pre;"> </text>
    <text font-size="20.0" fill="#0432FE" transform="matrix(1, 0, 0, -1, 0, 0)" letter-spacing="0.002000px" style="white-space: pre;" x="63" y="-598">    font-size</text>
    <text font-size="20.0" fill="#586E75" transform="matrix(1, 0, 0, -1, 0, 0)" letter-spacing="0.002000px" style="white-space: pre;" x="169" y="-598">: </text>
    <text font-size="20.0" fill="#001480" transform="matrix(1, 0, 0, -1, 0, 0)" letter-spacing="0.002000px" style="white-space: pre;" x="193" y="-598">calc</text>
    <text font-size="20.0" fill="#586E75" transform="matrix(1, 0, 0, -1, 0, 0)" style="white-space: pre;" x="241" y="-598">(</text>
    <text font-size="20.0" fill="#001480" transform="matrix(1, 0, 0, -1, 0, 0)" letter-spacing="0.002000px" style="white-space: pre;" x="253" y="-598">var</text>
    <text font-size="20.0" fill="#586E75" transform="matrix(1, 0, 0, -1, 0, 0)" style="white-space: pre;" x="289" y="-598">(</text>
    <text font-size="20.0" fill="#001480" transform="matrix(1, 0, 0, -1, 0, 0)" letter-spacing="0.002000px" style="white-space: pre;" x="301" y="-598">--main-font-size</text>
    <text font-size="20.0" fill="#586E75" transform="matrix(1, 0, 0, -1, 0, 0)" letter-spacing="0.002000px" style="white-space: pre;" x="443.1" y="-598">) / </text>
    <text font-size="20.0" fill="#0432FE" transform="matrix(0.999997, 0, 0, -1, 982.198608, 1196)" style="white-space: pre;" x="-511.1" y="598">0</text>
    <text font-size="20.0" fill="#586E75" transform="matrix(0.999997, 0, 0, -1, 986.198608, 1196)" letter-spacing="0.002000px" style="white-space: pre;" x="-503.1" y="598">);</text>
    <text font-size="20.0" fill="#586E75" transform="matrix(1.00, 0.00, -0.00, -1.00, 577.1, 598.0)" letter-spacing="0.002000px" style="white-space: pre;"> </text>
    <text font-size="20.0" fill="#586E75" transform="matrix(1, 0, 0, -1, 0, 0)" style="white-space: pre;" x="63" y="-571">}</text>
  </g>
</svg>