<svg id="Layer_1" xmlns="http://www.w3.org/2000/svg" viewBox="0 0 84 26"><style>.st0{fill:#74758b}</style><title>Artboard 69 copy</title><path class="st0" d="M18 25.4h-4v-9c0-2.7-2.2-4.9-5-4.9s-5 2.2-5 4.9v9H0v-9c0-4.9 4-9 9-9s9 4 9 9v9zM28.7 26c-5 0-9-4-9-8.9V8h4.1v9c0 2.7 2.2 4.9 5 4.9s5-2.2 5-4.9V8h4v9c-.1 5-4.1 9-9.1 9zM63.7 25.4h-9.1c-5 0-9-4-9-9s4-9 9-9h9.1v18zm-9.1-13.9c-2.7 0-5 2.2-5 4.9s2.2 4.9 5 4.9h5v-9.8h-5z"/><path class="st0" d="M63.7 25.4h-9.1c-5 0-9-4-9-9s4-9 9-9h9.1v18zm-9.1-13.9c-2.7 0-5 2.2-5 4.9s2.2 4.9 5 4.9h5v-9.8h-5zM75 25.4h-9.1V0H70v7.5h5c5 0 9 4 9 9s-4 8.9-9 8.9zm-5.1-4.1h5c2.7 0 5-2.2 5-4.9s-2.2-4.9-5-4.9h-5v9.8zM39.7.1h4.1v25.3h-4.1z"/></svg>